<?xml version="1.0" standalone="no"?>
<!DOCTYPE svg PUBLIC "-//W3C//DTD SVG 20010904//EN"
 "http://www.w3.org/TR/2001/REC-SVG-20010904/DTD/svg10.dtd">
<svg version="1.0" xmlns="http://www.w3.org/2000/svg"
 width="200px" height="100px" viewBox="0 0 3859.000000 2400.000000"
 preserveAspectRatio="xMidYMid meet">

<g transform="translate(0.000000,2400.000000) scale(0.100000,-0.100000)"
fill="#E32626" stroke="none">
<path d="M1527 16533 c-4 -3 -7 -2211 -7 -4905 l0 -4898 18010 0 18010 0 0
4905 0 4905 -18003 0 c-9902 0 -18007 -3 -18010 -7z m3811 -2054 c208 -22 451
-91 639 -179 98 -46 273 -146 273 -156 0 -3 -118 -198 -261 -435 l-261 -430
-52 49 c-116 109 -244 184 -371 217 -68 17 -228 20 -295 4 -72 -16 -169 -69
-222 -121 -97 -95 -145 -265 -104 -372 39 -103 164 -185 416 -276 180 -65 362
-150 466 -220 105 -70 249 -216 303 -307 103 -174 147 -411 122 -663 -44 -438
-205 -816 -463 -1086 -243 -253 -544 -408 -928 -476 -118 -21 -500 -17 -625 6
-299 55 -581 184 -818 376 -44 35 -81 68 -83 75 -3 7 119 211 272 454 l276
441 92 -93 c104 -107 169 -161 267 -218 226 -132 501 -156 696 -62 70 34 167
128 205 199 34 64 58 153 58 219 0 151 -71 237 -281 339 -74 35 -197 90 -274
121 -411 166 -570 285 -680 510 -105 214 -121 447 -54 785 127 639 552 1118
1121 1266 156 40 381 53 566 33z m21745 -106 c3 -5 -114 -748 -259 -1653 -145
-905 -264 -1646 -264 -1647 0 -2 261 -3 580 -3 l580 0 -5 -22 c-5 -25 -145
-901 -145 -912 0 -3 -479 -6 -1065 -6 -1037 0 -1065 0 -1065 19 0 23 668 4201
675 4219 3 9 110 12 484 12 264 0 482 -3 484 -7z m8311 -510 c-4 -20 -134
-829 -134 -838 0 -3 113 -5 250 -5 244 0 250 0 250 -20 0 -11 -29 -203 -65
-426 -36 -223 -65 -408 -65 -410 0 -2 -114 -4 -254 -4 l-254 0 -10 -57 c-5
-32 -79 -489 -163 -1015 l-153 -958 -448 0 c-405 0 -448 2 -448 16 0 17 305
1937 316 1987 l6 27 -146 0 c-140 0 -146 1 -146 20 0 11 29 203 65 426 36 223
65 408 65 410 0 2 67 4 148 4 l149 0 36 223 c19 122 50 315 68 430 l33 207
452 0 c426 0 452 -1 448 -17z m-19360 -781 c403 -105 657 -372 752 -792 51
-225 53 -476 7 -780 l-16 -110 -938 0 c-535 0 -940 -4 -943 -9 -14 -21 -18
-240 -7 -306 31 -178 133 -289 299 -324 72 -15 216 -14 277 3 117 31 228 104
304 200 l44 56 427 0 c235 0 429 -3 432 -6 18 -17 -127 -280 -228 -414 -303
-403 -739 -597 -1294 -577 -366 13 -639 124 -851 344 -209 218 -313 508 -312
873 1 562 223 1113 587 1457 184 174 421 309 650 369 167 45 254 54 476 50
202 -3 222 -5 334 -34z m7350 0 c403 -105 657 -372 752 -792 51 -225 53 -476
7 -780 l-16 -110 -938 0 c-535 0 -940 -4 -943 -9 -14 -21 -18 -240 -7 -306 31
-178 133 -289 299 -324 72 -15 216 -14 277 3 117 31 228 104 304 200 l44 56
427 0 c235 0 429 -3 432 -6 18 -17 -127 -280 -228 -414 -303 -403 -739 -597
-1294 -577 -366 13 -639 124 -851 344 -209 218 -313 508 -312 873 1 562 223
1113 587 1457 184 174 421 309 650 369 167 45 254 54 476 50 202 -3 222 -5
334 -34z m6381 23 c287 -46 538 -174 722 -368 148 -156 245 -345 298 -582 22
-96 31 -386 16 -500 -50 -379 -187 -705 -411 -980 -94 -115 -272 -279 -387
-355 -294 -197 -637 -300 -998 -300 -704 0 -1179 401 -1270 1070 -25 180 -17
345 25 571 102 541 471 1024 977 1277 165 83 402 156 563 175 94 11 382 6 465
-8z m3080 0 c287 -46 538 -174 722 -368 148 -156 245 -345 298 -582 22 -96 31
-386 16 -500 -50 -379 -187 -705 -411 -980 -94 -115 -272 -279 -387 -355 -294
-197 -637 -300 -998 -300 -704 0 -1179 401 -1270 1070 -25 180 -17 345 25 571
102 541 471 1024 977 1277 165 83 402 156 563 175 94 11 382 6 465 -8z
m-21720 -6 c412 -50 742 -351 869 -791 91 -316 73 -709 -50 -1078 -102 -308
-262 -560 -501 -791 -213 -206 -464 -339 -722 -384 -98 -17 -301 -20 -387 -4
-199 35 -383 140 -496 283 -23 30 -45 55 -48 55 -3 1 -66 -376 -139 -836 -74
-461 -136 -844 -139 -850 -3 -10 -103 -13 -454 -13 l-450 0 6 28 c8 38 686
4279 686 4292 0 7 147 10 450 10 422 0 450 -1 450 -17 0 -10 -9 -72 -20 -138
-11 -66 -20 -126 -20 -134 0 -7 35 20 78 60 256 246 554 349 887 308z m3168
-29 c6 -5 -146 -967 -154 -974 -2 -3 -32 8 -65 24 -101 49 -175 64 -309 64
-204 -1 -333 -52 -466 -184 -116 -115 -192 -262 -244 -469 -13 -53 -69 -379
-124 -726 -56 -346 -103 -640 -106 -652 l-5 -23 -450 0 -449 0 5 28 c10 58
454 2843 454 2852 0 6 164 10 450 10 403 0 450 -2 450 -16 0 -16 -57 -382 -66
-423 -3 -15 16 2 55 51 191 238 423 385 684 434 67 12 329 16 340 4z m6532
-30 c121 -30 215 -81 288 -154 150 -151 221 -400 197 -697 -7 -84 -265 -1743
-315 -2026 l-6 -33 -449 0 c-248 0 -450 3 -450 6 0 4 51 329 114 723 140 877
138 859 139 1006 1 143 -13 214 -56 286 -48 80 -101 104 -232 104 -140 -1
-196 -24 -293 -121 -60 -60 -81 -90 -123 -178 -33 -70 -61 -149 -81 -229 -16
-67 -82 -453 -146 -857 l-118 -735 -452 -3 -452 -2 5 22 c12 51 235 1470 246
1562 6 54 9 158 7 230 -8 189 -38 259 -138 312 -29 16 -57 19 -155 19 -116 0
-123 -1 -187 -33 -79 -39 -140 -102 -191 -199 -93 -177 -107 -240 -247 -1121
-66 -411 -122 -757 -125 -769 l-5 -23 -450 0 -449 0 5 28 c10 58 454 2843 454
2852 0 6 164 10 450 10 422 0 450 -1 450 -17 0 -10 -11 -85 -25 -168 -13 -82
-22 -151 -20 -153 2 -3 28 16 56 42 177 160 416 280 636 322 107 20 325 14
418 -11 216 -60 381 -200 489 -415 l45 -89 52 67 c201 256 459 417 745 462 89
14 277 4 369 -20z m-13555 -35 c0 -9 -59 -381 -130 -828 -72 -446 -133 -848
-137 -892 -12 -168 34 -298 130 -362 61 -41 101 -53 202 -60 276 -19 470 121
549 397 13 44 286 1718 286 1751 0 5 187 9 450 9 378 0 450 -2 450 -14 0 -38
-303 -1898 -321 -1974 -62 -253 -175 -460 -339 -622 -190 -188 -430 -302 -766
-361 -176 -32 -588 -34 -759 -6 -327 55 -544 171 -681 363 -54 75 -86 147
-116 256 -20 72 -22 107 -22 268 l0 185 152 942 c84 518 152 947 152 953 0 7
148 10 450 10 396 0 450 -2 450 -15z"/>
<path d="M15483 12450 c-118 -21 -231 -86 -313 -178 -45 -51 -127 -192 -145
-249 l-6 -23 504 0 505 0 -5 43 c-20 182 -125 333 -269 387 -64 23 -196 33
-271 20z"/>
<path d="M22833 12450 c-118 -21 -231 -86 -313 -178 -45 -51 -127 -192 -145
-249 l-6 -23 504 0 505 0 -5 43 c-20 182 -125 333 -269 387 -64 23 -196 33
-271 20z"/>
<path d="M29249 12220 c-254 -64 -481 -309 -543 -587 -21 -93 -21 -256 0 -337
37 -145 131 -269 246 -325 147 -72 306 -65 475 20 181 91 332 284 395 506 34
119 32 290 -5 398 -52 150 -132 242 -264 302 -49 23 -74 27 -163 29 -58 2
-121 -1 -141 -6z"/>
<path d="M32329 12220 c-254 -64 -481 -309 -543 -587 -21 -93 -21 -256 0 -337
37 -145 131 -269 246 -325 147 -72 306 -65 475 20 181 91 332 284 395 506 34
119 32 290 -5 398 -52 150 -132 242 -264 302 -49 23 -74 27 -163 29 -58 2
-121 -1 -141 -6z"/>
<path d="M10488 12204 c-226 -54 -433 -271 -518 -539 -27 -88 -37 -250 -21
-337 41 -209 201 -370 400 -401 107 -16 203 1 321 60 80 39 109 60 180 133
141 142 220 303 242 489 47 399 -241 683 -604 595z"/>
</g>
</svg>
